<svg xmlns="http://www.w3.org/2000/svg" viewBox="0 0 186.13 159.56"><defs><style>.cls-1{fill:#fff;}.cls-2{fill:none;}</style></defs><g id="Layer_2" data-name="Layer 2"><g id="Layer_2-2" data-name="Layer 2"><polygon class="cls-1" points="78.57 0.39 78.57 0.39 78.57 0.39 78.57 0.39"/><path class="cls-1" d="M72.42,0l0,0,0,0Z"/><polygon class="cls-1" points="29.07 102.05 29.07 102.05 29.07 102.05 29.07 102.05"/><path class="cls-2" d="M71.55,17.73h0C71.47,17.76,71.48,17.76,71.55,17.73Z"/><path class="cls-2" d="M70.78,18.74a2.9,2.9,0,0,1,.19-.29C70.52,18.51,70.53,18.67,70.78,18.74Z"/><path class="cls-2" d="M68.57,4.94c0,.13-.1.25-.13.36A2.6,2.6,0,0,1,68.57,4.94Z"/><path class="cls-1" d="M68.43,5.32v0Z"/><path class="cls-2" d="M83.2,5.46a7.53,7.53,0,0,1,.2,1,.58.58,0,0,0,0,.31,6.94,6.94,0,0,0-.24-1.26Z"/><path class="cls-2" d="M83.2,5.43c-.06-.22-.11-.38-.11-.38s.07.25.1.37Z"/><path class="cls-1" d="M185.7,115.9c-1.06-2.91-3.53-5.27-5.74-7.33-3.13-2.91-6.51-5.55-9.83-8.22-1.81-1.46-3.62-2.93-5.39-4.43a44,44,0,0,0-3.88-3.21,28.7,28.7,0,0,0-10.53-4c0-1.14-.06-4.76-.13-7.49,0-.3,0-.62,0-1s0-.58,0-.87c0-.56,0-1.12-.07-1.69,0-.23,0-.47,0-.7a6.11,6.11,0,0,0,0-1.17c0-1-.09-1.94-.17-2.89-.26-3.27-.68-6.53-1.14-9.78h0v0c-.22-1.52-.44-3-.67-4.55C146.86,50.36,146,42,142,34.6a44.26,44.26,0,0,0-12-13.74A41.89,41.89,0,0,0,117,13.74,168.57,168.57,0,0,0,97.52,9.26,143.92,143.92,0,0,0,63.85,7.11C52.05,7.87,40,10.6,30,17.29A46.52,46.52,0,0,0,17,30.82,108.77,108.77,0,0,0,4.3,57.52,91.38,91.38,0,0,0,.18,80.41,91.32,91.32,0,0,0,1,99.89c.54,3.21,1.23,7.06,3.22,9.74A3.67,3.67,0,0,0,6.91,111a53.93,53.93,0,0,0,11.36.34,237.57,237.57,0,0,0,25.09-2.75c14.69-2.26,29.27-5.21,43.78-8.41q7.22-1.59,14.4-3.27c3.73-.86,7.45-2,11.21-2.65,3.23-.59,6.53-.91,9.79-1.21a125,125,0,0,1,18.15-.46c5.92.32,12.14,1.09,17.55,3.66,2.92,1.39,5.14,3.55,7.6,5.6,3.44,2.88,7,5.62,10.44,8.51a44.75,44.75,0,0,1,7.91,7.83,13.67,13.67,0,0,1,1.21,2c-.11.18-.21.35-.33.51-2.06,2.7-5.95,4.1-9.1,4.94a82.82,82.82,0,0,1-12.63,1.91,97,97,0,0,0-14.28,2.32,87,87,0,0,0-12.3,4.48c-7.24,3.11-14.31,6.59-21.3,10.2a101.62,101.62,0,0,0-9.44,5,27.59,27.59,0,0,1-14.07,5c-7.92.35-15.26-3.82-22.13-7.26-6.36-3.18-12.61-6.57-18.8-10-2.09-1.17-4.24-2.28-6.24-3.6l-.05,0-3.33-2-.07,0h0c-5.2-3.15-15.1-9.12-21.47-13l-.06,0h0l.06,0L13.93,115a25.19,25.19,0,0,0,3.52,4l.76.73a76.3,76.3,0,0,0,12.1,9l3.41,2.31,10.78,7.36c2.24,1.53,4.71,2.76,7.07,4.08,6.31,3.54,12.69,7,19.17,10.2,7,3.48,14.34,7.47,22.42,6.71a28.29,28.29,0,0,0,12.92-4.91c.88-.57,1.85-1,2.76-1.51,2.46-1.32,4.94-2.62,7.42-3.9,7.11-3.65,14.3-7.17,21.66-10.27a77.45,77.45,0,0,1,12.7-4.37,118.94,118.94,0,0,1,14.31-2.11,62.89,62.89,0,0,0,12.2-2.08c2.91-.9,6.76-2.41,8.35-5.21a7.93,7.93,0,0,0,.62-4.06A15,15,0,0,0,185.7,115.9ZM73.82,14.89c-1,.29-2,.63-3.15,1l-.06,0h0A47.59,47.59,0,0,0,66,17.88a35.57,35.57,0,0,0-7.23,5c.33-.33.66-.67,1-1a15.66,15.66,0,0,0-1.42,1.4l-.23.24-.85.89c-.95,1-1.87,2.07-2.75,3.15a59,59,0,0,0-12.2,24.89c-1.16,5.43-1.82,11-2.7,16.48l-.09.3-.69,4.06v.17c-.62,3.5-1.3,7-2.14,10.43C36.23,86,35.65,88,35,90h0s-.31,1.17-.86,2.79c0,0-1.42,3.26-2.92,6.48l-.1.17c-.28.59-.58,1.18-.87,1.75a1.27,1.27,0,0,0,.12-.1,43.5,43.5,0,0,1-2.14,4.14l-.3.32h0l0,0a121.67,121.67,0,0,1-15.61.82,39.63,39.63,0,0,1-4.75-.34,5.64,5.64,0,0,1-2.71-.77A6.93,6.93,0,0,1,3,102.56a28.23,28.23,0,0,1-1.62-5.25,53.18,53.18,0,0,1-1.1-7.53C.26,89,.21,88.28.18,87.54l0-.84c.06-1.6.12-3.2.26-4.8A94.28,94.28,0,0,1,5.78,58.13,99.7,99.7,0,0,1,19.29,32.44C26.55,22.76,37.51,17,49.11,14.24c10.69-2.53,21.85-2.8,32.78-2C81.78,12.33,77.13,13.81,73.82,14.89ZM81.9,12.3h0ZM150,75.36Z"/><path class="cls-1" d="M176.52,117.62h0c-1,.51-2.38,1.2-3.82,1.85a34.41,34.41,0,0,1-8.75,2.27h0l-.76.09-1.84.15h0c-1.86.11-3.71.24-5.55.45h.07s-13.7.85-33.17,10.35h0a70.89,70.89,0,0,0-8,4.41c-.67.43-1.32.91-2,1.39h0c-11.71,8.57-20,6.18-21.34,5.71s-2.56-1.19-3.79-1.81c-2.67-1.36-5.28-2.85-7.84-4.41l0,0c-3.89-2.29-32.82-16.26-32.82-16.26l18.89,12.57c4.34,2.89,8.72,5.71,13.29,8.22a50.07,50.07,0,0,0,11.73,5.1,10.32,10.32,0,0,0,1.54.26h0a18.34,18.34,0,0,0,6.58-.26h0l.33-.08a24.34,24.34,0,0,0,3.71-1.13c.73-.27,1.51-.58,2.3-.94h0l0,0a25.88,25.88,0,0,0,2.44-1.28c.7-.38,1.45-.8,2.12-1.2l.27-.18a67.87,67.87,0,0,0,6.28-4.19c1.74-1.29,3.4-2.64,5.26-3.76,2.25-1.35,4.59-2.56,7-3.7q4.69-2.27,9.58-4.1c1.88-.71,3.77-1.37,5.68-2,2.18-.42,3.85-.76,5.1-1,3-.4,5.9-.51,8.89-.73h0s1.58-.08,2.94-.3h0l.39-.07h0l.51-.08,1.26-.21c1.5-.27,3.44-.64,4.77-1h0l.74-.2h0c.87-.23,1.74-.49,2-.59a24.57,24.57,0,0,0,4.35-1.5l0,0c.27-.13.53-.3.79-.45a13.16,13.16,0,0,0,2.45-2.17S177.47,117.14,176.52,117.62Z"/><path class="cls-1" d="M83.2,5.46h0v0h0c0-.12-.06-.25-.1-.37a6.12,6.12,0,0,0-1.7-2.61,11.48,11.48,0,0,0-1.5-1A7.28,7.28,0,0,0,79,1a8.77,8.77,0,0,0-6-.25,7.79,7.79,0,0,0-2.36,1.38,7.63,7.63,0,0,0-2,2.4c-.06.12-.12.25-.17.38a2.6,2.6,0,0,0-.13.36v0a4.71,4.71,0,0,0-.12.54h0a.35.35,0,0,1,0,.22,11.87,11.87,0,0,1,1-.81,13.38,13.38,0,0,1,3-1.72,8.83,8.83,0,0,1,6.74,0,11.51,11.51,0,0,1,1.18.56l.14.08c.37.21.72.43,1,.65l.07,0a10.49,10.49,0,0,1,.9.73l.25.23a9.3,9.3,0,0,1,.84.89.58.58,0,0,1,0-.31A7.53,7.53,0,0,0,83.2,5.46Z"/><path d="M139.57,56.33,136,64l-3.18-8H126.6L132,67.8v.27l-6.74,12.22h0l-.14.26,6.73-.27.43-.87L135.59,73l2.84,6.66h0l.21.49h0l0,.06c.48,0,6.4.36,6.4.36l-5.56-12.09L145.68,57Z"/><path d="M88.6,60l0,.11-3.49,9.79L78.29,62.4l-7.84,2.07,12.09,12,2,9.86,1.89-.42h0l5.51-1.13L91,80.16l-1-5.14,4.64-11.2,2-4.87.13-.3h0l.06-.13Q92.66,59.21,88.6,60Z"/><path d="M115.15,61.08h0l-1.86-4.6c-3.13.23-7.85.81-7.85.81h0l-3,10.45h0l-2.59,8.84-2.13,7.19s4.7-.79,7.3-1.16h0L106.33,77l7.88-.51,1.59,4.75,7.28-.68-1-2.36Zm-7.56,10.6,2-8.9,2.9,8.58Z"/><polygon class="cls-2" points="94.45 90.16 94.51 90.18 94.45 90.16 94.45 90.16"/><path class="cls-2" d="M104,73.39l0,0,0,0Z"/><polygon points="103.73 73.64 103.73 73.64 103.73 73.64 103.73 73.64"/><polygon class="cls-2" points="94.45 90.16 94.51 90.18 94.45 90.16 94.45 90.16"/></g></g></svg>